<svg width="65" height="44" viewBox="0 0 65 44" fill="none" xmlns="http://www.w3.org/2000/svg">
<path d="M51.4251 16.5517L51.5732 17.303L52.3372 17.3559C58.8648 17.8078 64 23.1773 64 29.7916C64 36.7144 58.381 42.3333 51.4583 42.3333H16.25C7.8377 42.3333 1 35.4956 1 27.0833C1 19.2302 6.94746 12.7491 14.5953 11.9361L15.1287 11.8793L15.3765 11.4036C18.5968 5.22067 25.0608 1 32.5 1C41.8711 1 49.674 7.66732 51.4251 16.5517ZM46.7488 25.0821L48.4559 23.375H46.0417H38.9167V13.5417V12.5417H37.9167H27.0833H26.0833V13.5417V23.375H18.9583H16.5441L18.2512 25.0821L31.7929 38.6237L32.5 39.3308L33.2071 38.6237L46.7488 25.0821Z" fill="#E6E9E6" stroke="black" stroke-width="2"/>
</svg>
