<svg width="139" height="39" viewBox="0 0 139 39" fill="none" xmlns="http://www.w3.org/2000/svg">
<path d="M0 26.0226L13.8673 14.6498L0 0V26.0226Z" fill="url(#paint0_linear_1_50)"/>
<path d="M14.5814 14.4866C14.5814 14.4866 27.8471 0.383409 28.2594 0.0372009V26.1482H27.4279L27.3976 6.67949L14.5829 19.8354L14.5814 14.4866Z" fill="white"/>
<path d="M87.1079 11.548V23.432L69.3042 4.24866L69.27 23.432H67.7748V0.312195C67.7748 0.312195 81.1765 14.3948 85.5726 19.415V11.548H87.1079Z" fill="white"/>
<path d="M138.76 0.312195V1.70783H129.428V23.432H127.838V1.70783H118.466V0.312195H138.76Z" fill="white"/>
<path d="M41.6802 2.67574C43.3323 1.83441 45.1586 1.39568 47.0111 1.39508C48.8636 1.39449 50.6902 1.83204 52.3428 2.6723C52.7429 2.89886 53.1239 3.15787 53.482 3.44673L53.526 3.48061L54.7605 2.52989L54.693 2.47538C54.2249 2.085 53.7183 1.74358 53.1812 1.4564C51.268 0.499485 49.1598 0.00118304 47.0224 0.000671781C44.8849 0.00016052 42.7765 0.497454 40.8629 1.45345C39.1329 2.40304 37.7206 3.84436 36.8033 5.59666C35.8135 7.5412 35.3206 9.70218 35.3687 11.8854C35.3465 13.547 35.6143 15.1998 36.1601 16.7686L36.1904 16.8536L37.5433 15.8076V15.7649C37.1737 14.5054 36.9903 13.1983 36.9989 11.8854C36.9603 9.9556 37.3795 8.04429 38.2217 6.30921C38.9902 4.77994 40.1946 3.51491 41.6817 2.67525L41.6802 2.67574Z" fill="white"/>
<path d="M57.9764 7.38612L57.9461 7.29773L56.5726 8.35403V8.39823C56.8719 9.53592 57.0209 10.7082 57.0158 11.8849C57.0623 13.8208 56.6483 15.74 55.8082 17.4831C55.0361 19.0131 53.827 20.277 52.3355 21.1132C50.6885 21.9634 48.8636 22.4081 47.0117 22.4105C45.1597 22.4129 43.3337 21.9729 41.6846 21.1269C41.3923 20.9614 41.11 20.7789 40.8389 20.5803L40.7983 20.5499L39.5731 21.4947L39.644 21.5492C40.0336 21.841 40.4421 22.1064 40.8668 22.3438C42.7597 23.3463 44.8763 23.8467 47.0159 23.7974C49.1616 23.8443 51.2841 23.3442 53.185 22.3438C54.9181 21.3982 56.3314 19.9559 57.2447 18.2006C58.2176 16.2425 58.6994 14.0754 58.6484 11.8878C58.6652 10.3609 58.4383 8.84105 57.9764 7.38612Z" fill="white"/>
<path d="M114.086 22.0187V23.4109H96.3115V11.5288H110.216V12.9775H97.9011V22.0187H114.086Z" fill="white"/>
<path d="M114.109 0.312195H96.3115V1.70783H114.109V0.312195Z" fill="white"/>
<path d="M16.9825 35.1344C17.2669 35.2699 17.5115 35.477 17.6927 35.7354L17.1615 36.17C17.0619 35.9583 16.9032 35.7802 16.7047 35.6574C16.4787 35.5391 16.2256 35.4829 15.971 35.4943C15.7259 35.4807 15.482 35.5372 15.2677 35.6574C15.194 35.7001 15.1326 35.7614 15.0897 35.8352C15.0469 35.909 15.0239 35.9928 15.0231 36.0782C15.0238 36.1579 15.0472 36.2358 15.0905 36.3027C15.1338 36.3695 15.1953 36.4225 15.2677 36.4554C15.54 36.5825 15.8313 36.664 16.13 36.6965C16.4468 36.7424 16.7576 36.8233 17.0568 36.9376C17.2535 37.0107 17.4265 37.1363 17.5572 37.301C17.6664 37.4593 17.7221 37.6487 17.7162 37.8412C17.7175 38.0621 17.6407 38.2763 17.4995 38.4457C17.3372 38.6322 17.1281 38.7717 16.894 38.8498C16.603 38.9471 16.2977 38.9942 15.9911 38.9893C15.6393 39.0248 15.2844 38.9703 14.9594 38.8307C14.6343 38.6912 14.3498 38.4712 14.1324 38.1913L14.6265 37.7464C14.7512 37.9706 14.9395 38.1527 15.1674 38.2694C15.4224 38.3872 15.7013 38.4436 15.9818 38.4339C16.2338 38.4468 16.485 38.3961 16.7125 38.2866C16.7923 38.2509 16.86 38.1928 16.9074 38.1192C16.9548 38.0456 16.9799 37.9598 16.9796 37.8721C16.976 37.7984 16.9515 37.7272 16.9089 37.667C16.8664 37.6068 16.8076 37.56 16.7394 37.5323C16.4743 37.4124 16.1926 37.3334 15.904 37.298C15.5804 37.2511 15.2629 37.1687 14.9571 37.0525C14.7549 36.9758 14.5772 36.8455 14.443 36.6754C14.3318 36.5191 14.2747 36.3306 14.2806 36.1386C14.2806 35.9207 14.3525 35.709 14.4851 35.5366C14.6374 35.3405 14.8405 35.1901 15.072 35.1019C15.357 34.9879 15.6619 34.9325 15.9686 34.9389C16.3165 34.9311 16.6622 34.9977 16.9825 35.1344Z" fill="white"/>
<path d="M23.2265 38.3735V38.9201H20.0032V34.9978H23.1336V35.5444H20.7066V36.6739H22.6038V37.2106H20.7066V38.372L23.2265 38.3735Z" fill="white"/>
<path d="M28.7021 38.3735V38.9201H25.4788V34.9978H28.6091V35.5444H26.1787V36.6739H28.0731V37.2106H26.1787V38.372L28.7021 38.3735Z" fill="white"/>
<path d="M37.4523 35.5444H35.9708V38.9402H35.2709V35.5444H33.7928V34.9978H37.4523V35.5444Z" fill="white"/>
<path d="M43.1446 34.9978V38.9235H42.4344V37.2273H40.2999V38.9255H39.6V34.9978H40.2999V36.6753H42.4344V35.0057L43.1446 34.9978Z" fill="white"/>
<path d="M48.9523 38.3735V38.9201H45.7325V34.9978H48.8628V35.5444H46.4344V36.6739H48.3316V37.2106H46.4344V38.372L48.9523 38.3735Z" fill="white"/>
<path d="M56.1461 38.9235H55.3176L54.0459 34.9978H54.7933L55.7333 38.4177L56.6837 34.9978H57.4041L58.3613 38.4241L59.3117 34.9978H60.0321L58.7673 38.9235H57.9422L57.2657 36.5663L57.049 35.6632L56.8324 36.5663L56.1461 38.9235Z" fill="white"/>
<path d="M65.7186 34.9978V38.9235H65.0118V37.2273H62.8773V38.9255H62.1774V34.9978H62.8773V36.6753H65.0118V35.0057L65.7186 34.9978Z" fill="white"/>
<path d="M71.1844 35.1815C71.4861 35.3388 71.7336 35.5837 71.8946 35.8843C72.0592 36.219 72.1448 36.5874 72.1448 36.9607C72.1448 37.334 72.0592 37.7024 71.8946 38.0371C71.7336 38.3377 71.4861 38.5826 71.1844 38.7399C70.8461 38.9009 70.4764 38.9844 70.102 38.9844C69.7276 38.9844 69.3579 38.9009 69.0196 38.7399C68.7223 38.5796 68.4796 38.3336 68.3226 38.0337C68.158 37.6989 68.0723 37.3306 68.0723 36.9573C68.0723 36.5839 68.158 36.2156 68.3226 35.8808C68.4827 35.5807 68.7289 35.3359 69.0294 35.1781C69.3677 35.0171 69.7374 34.9335 70.1118 34.9335C70.4862 34.9335 70.8559 35.0171 71.1942 35.1781L71.1844 35.1815ZM69.1551 35.8779C68.9283 36.1932 68.8063 36.5723 68.8063 36.9612C68.8063 37.3501 68.9283 37.7292 69.1551 38.0445C69.4132 38.2926 69.7567 38.4311 70.114 38.4311C70.4713 38.4311 70.8148 38.2926 71.0729 38.0445C71.2996 37.7292 71.4216 37.3501 71.4216 36.9612C71.4216 36.5723 71.2996 36.1932 71.0729 35.8779C70.8148 35.6297 70.4714 35.4912 70.1141 35.4911C69.7568 35.491 69.4132 35.6299 69.1551 35.8779Z" fill="white"/>
<path d="M77.5805 38.3735V38.9201H74.4957V34.9978H75.1956V38.3936L77.5805 38.3735Z" fill="white"/>
<path d="M82.9515 38.3735V38.9201H79.7282V34.9978H82.8668V35.5444H80.4316V36.6739H82.3288V37.2106H80.4316V38.372L82.9515 38.3735Z" fill="white"/>
<path d="M91.417 35.317C91.5513 35.4238 91.6585 35.5611 91.7297 35.7176C91.8008 35.8741 91.834 36.0453 91.8264 36.2172C91.8346 36.3881 91.8016 36.5586 91.7304 36.714C91.6591 36.8695 91.5517 37.0055 91.417 37.1105C91.0969 37.3479 90.7053 37.4678 90.3077 37.4503H89.3437V38.9309H88.6437V34.9983H90.3067C90.7022 34.9744 91.0939 35.0869 91.417 35.317ZM90.8761 36.7264C90.9511 36.6657 91.0106 36.5877 91.0494 36.4991C91.0882 36.4105 91.1052 36.3138 91.0991 36.2172C91.0991 35.762 90.7983 35.538 90.1962 35.538H89.3437V36.8963H90.1962C90.4343 36.9155 90.6723 36.8584 90.8761 36.7333V36.7264Z" fill="white"/>
<path d="M94.7586 38.9235H94.0587V34.9978H94.7586V38.9235Z" fill="white"/>
<path d="M100.266 38.7133C99.9264 38.909 99.5404 39.0077 99.1494 38.9986C98.7739 39.0074 98.4022 38.9231 98.067 38.7531C97.7665 38.5953 97.5203 38.3505 97.3602 38.0504C97.1956 37.7156 97.1099 37.3473 97.1099 36.9739C97.1099 36.6006 97.1956 36.2323 97.3602 35.8975C97.5203 35.5974 97.7665 35.3526 98.067 35.1948C98.4 35.025 98.7696 34.9407 99.143 34.9492C99.5209 34.9373 99.8957 35.0218 100.232 35.1948C100.522 35.3531 100.748 35.6076 100.872 35.9147L100.195 36.1828C100.127 35.9743 99.9944 35.7933 99.816 35.6667C99.62 35.55 99.3942 35.4933 99.1665 35.5037C98.9861 35.496 98.8062 35.5271 98.6388 35.5948C98.4714 35.6626 98.3203 35.7654 98.1956 35.8965C97.9385 36.1952 97.8075 36.5828 97.8302 36.9769C97.8026 37.3679 97.9233 37.7549 98.1682 38.0602C98.291 38.1915 98.4409 38.2942 98.6075 38.361C98.774 38.4279 98.9532 38.4573 99.1322 38.4472C99.3802 38.455 99.625 38.3889 99.8356 38.2571C100.031 38.1215 100.175 37.9242 100.245 37.6968L100.921 37.9006C100.802 38.2391 100.571 38.5261 100.266 38.7133Z" fill="white"/>
<path d="M106.36 35.5444H104.879V38.9402H104.175V35.5444H102.694V34.9978H106.357L106.36 35.5444Z" fill="white"/>
<path d="M111.985 37.4193C112 37.6356 111.968 37.8526 111.889 38.0547C111.811 38.2567 111.689 38.4388 111.532 38.5876C111.142 38.8468 110.684 38.9851 110.216 38.9851C109.748 38.9851 109.291 38.8468 108.9 38.5876C108.743 38.4387 108.621 38.2567 108.543 38.0547C108.464 37.8526 108.432 37.6356 108.447 37.4193V34.9978H109.154V37.355C109.129 37.6536 109.223 37.95 109.414 38.18C109.646 38.3516 109.927 38.4442 110.216 38.4442C110.504 38.4442 110.785 38.3516 111.017 38.18C111.208 37.95 111.302 37.6536 111.277 37.355V35.0121H111.984L111.985 37.4193Z" fill="white"/>
<path d="M116.146 37.355H115.213V38.924H114.519V34.9983H116.28C116.673 34.9776 117.063 35.0873 117.389 35.3107C117.612 35.5004 117.754 35.7695 117.785 36.0618C117.816 36.354 117.734 36.647 117.555 36.8796C117.376 37.0807 117.14 37.2218 116.878 37.2838L118.049 38.924H117.244L116.146 37.355ZM115.216 36.8251H116.231C116.455 36.8406 116.677 36.7847 116.867 36.6655C116.933 36.6036 116.986 36.5287 117.022 36.4454C117.058 36.3622 117.076 36.2724 117.076 36.1816C117.076 36.0908 117.058 36.001 117.022 35.9177C116.986 35.8345 116.933 35.7596 116.867 35.6976C116.677 35.5784 116.455 35.5226 116.231 35.538H115.213L115.216 36.8251Z" fill="white"/>
<path d="M123.454 38.3735V38.9201H120.231V34.9978H123.361V35.5444H120.931V36.6739H122.831V37.2106H120.931V38.372L123.454 38.3735Z" fill="white"/>
<defs>
<linearGradient id="paint0_linear_1_50" x1="9.42977" y1="27.0635" x2="-2.82795" y2="17.6933" gradientUnits="userSpaceOnUse">
<stop stop-color="#92278F"/>
<stop offset="1" stop-color="#485FAB"/>
</linearGradient>
</defs>
</svg>
